<svg preserveAspectRatio="none" width="100%" height="100%" overflow="visible" style="display: block;" viewBox="0 0 139.673 119.997" fill="none" xmlns="http://www.w3.org/2000/svg">
<path id="Vector" d="M52.5345 53.0132C50.6454 53.0132 49.1041 54.5066 49.1041 56.3446C49.1041 58.1827 50.6422 59.6761 52.5345 59.6761C54.4268 59.6761 55.9649 58.1827 55.9649 56.3446C55.9649 54.5066 54.4268 53.0132 52.5345 53.0132ZM86.2545 78.7012C83.7048 78.7012 81.6306 80.718 81.6306 83.1943C81.6306 85.6705 83.7048 87.6873 86.2545 87.6873C88.8041 87.6873 90.8783 85.6737 90.8783 83.1943C90.8783 80.7148 88.8041 78.7012 86.2545 78.7012ZM40.1627 20.442C38.9182 20.442 37.9099 21.4248 37.9099 22.631C37.9099 23.8373 38.9182 24.8201 40.1627 24.8201C41.4073 24.8201 42.4156 23.8373 42.4156 22.631C42.4156 21.4248 41.4041 20.442 40.1627 20.442ZM87.132 24.8201C88.3765 24.8201 89.3849 23.8373 89.3849 22.631C89.3849 21.4248 88.3765 20.442 87.132 20.442C85.8875 20.442 84.8791 21.4248 84.8791 22.631C84.8791 23.8373 85.8907 24.8201 87.132 24.8201ZM139.673 53.0866C139.673 23.7671 108.407 0 69.8365 0C31.2661 0 0 23.7671 0 53.0866C0 82.4061 31.2661 106.173 69.8365 106.173C76.4069 106.173 82.7635 105.481 88.7914 104.191L123.162 119.997L111.588 95.6426C128.635 85.9641 139.67 70.5034 139.67 53.0866H139.673ZM95.0427 57.5987V61.9162H88.6159V67.0092H95.0427V71.3267H77.3929V67.0092H84.1803V61.9162H77.3929V44.8058H95.0459V49.1041H81.8317V57.5987H95.0459H95.0427ZM87.132 17.9817C89.771 17.9817 91.9186 20.0686 91.9186 22.631C91.9186 25.1935 89.771 27.2804 87.132 27.2804C84.493 27.2804 82.3454 25.1935 82.3454 22.631C82.3454 20.0686 84.493 17.9817 87.132 17.9817ZM74.2816 11.992C74.2976 11.5453 74.489 11.1209 74.8081 10.8305C75.0794 10.5848 75.4208 10.4571 75.7718 10.4699C76.56 10.4986 77.1759 11.223 77.144 12.0909L76.5983 27.0666C76.5824 27.5134 76.3877 27.9346 76.0718 28.225C75.8006 28.4707 75.4591 28.5983 75.1113 28.5888C74.7635 28.576 74.4316 28.4228 74.1763 28.1612C73.8795 27.8516 73.72 27.4144 73.7359 26.9677L74.2848 11.9952L74.2816 11.992ZM71.499 33.6147C71.515 33.9848 71.6745 34.3135 71.9553 34.5401C72.233 34.7667 72.5935 34.8624 72.9701 34.8177L78.1268 34.1412C78.5832 34.0838 79.0427 34.1955 79.3905 34.4539C79.6873 34.6709 79.8724 34.9773 79.9202 35.3123C80.0255 36.0718 79.3905 36.7866 78.5098 36.8983L70.2545 37.9769C69.8748 38.0279 69.5078 37.9258 69.2238 37.6961C68.9398 37.4631 68.777 37.1312 68.7611 36.7611L68.5377 31.215C68.5186 30.7651 68.6781 30.3279 68.9749 30.0184C69.227 29.7535 69.5588 29.6035 69.9067 29.5876C70.6981 29.5588 71.3682 30.2385 71.4033 31.1033L71.5054 33.6115L71.499 33.6147ZM59.1368 14.0279C59.4527 13.7375 59.8995 13.578 60.359 13.5907L67.0124 13.7726C67.8006 13.7918 68.4675 14.4332 68.5026 15.199L68.6909 19.5421C68.7228 20.3079 68.1165 21.0132 67.3347 21.1153L63.2724 21.645C62.4811 21.7503 61.8333 22.4045 61.8269 23.1001C61.8237 23.4065 61.9513 23.6905 62.1843 23.8979C62.4523 24.1372 62.8353 24.2553 63.2373 24.2202L69.3004 23.6905C70.1907 23.6139 70.9725 24.1691 71.0427 24.935C71.1097 25.6977 70.446 26.3837 69.5556 26.4603L60.3654 27.2645C59.9825 27.2964 59.6251 27.1815 59.3538 26.939C59.0826 26.6965 58.9358 26.355 58.939 25.9817L58.9836 20.7898C58.9932 20.0239 59.6346 19.3123 60.4164 19.2134L64.3446 18.6996C65.1328 18.5943 65.7583 18.0646 65.7328 17.5126C65.7104 16.9637 65.0435 16.4978 64.2489 16.4787L60.2792 16.3702C59.8197 16.3574 59.3793 16.1723 59.0826 15.866C58.8273 15.6011 58.6933 15.2724 58.7028 14.9374C58.7124 14.5991 58.8688 14.2736 59.1368 14.0279ZM26.6996 71.282H11.1751V66.9741H15.7734V56.9605H20.2122V66.9741H26.6996V71.282ZM26.6996 61.9992H22.2609V49.0818H11.1719V44.7898H26.6965V62.0024L26.6996 61.9992ZM41.3498 56.7084H35.2549V78.8448H30.8161V43.4176H35.2549V52.3973H41.3498V56.7084ZM40.1627 27.2804C37.5237 27.2804 35.3793 25.1935 35.3793 22.631C35.3793 20.0686 37.5237 17.9817 40.1627 17.9817C42.3805 17.9817 44.2473 19.4591 44.7866 21.4535C44.9493 21.3961 45.1217 21.3578 45.3036 21.3482L48.3032 21.2142C49.0977 21.1759 49.7679 20.5186 49.7966 19.7431L49.9019 16.8552C49.9178 16.4085 50.1093 15.9872 50.4284 15.6969C50.6996 15.4511 51.0411 15.3203 51.3889 15.3331C52.1771 15.3618 52.793 16.0894 52.7643 16.9541L52.2569 30.7714C52.2409 31.2214 52.0495 31.6426 51.7272 31.933C51.4559 32.1787 51.1145 32.3063 50.7667 32.2936C49.9753 32.2649 49.3594 31.5405 49.3913 30.6757L49.5892 25.3179C49.6019 24.9477 49.4679 24.6095 49.2062 24.3574C48.9446 24.1085 48.5935 23.9809 48.2106 23.9968L45.4312 24.1245C45.1855 24.134 44.9462 24.0925 44.7228 24.0128C44.1133 25.9019 42.2944 27.2772 40.1532 27.2772L40.1627 27.2804ZM57.5126 43.4113V47.3203H47.7351V43.4113H57.5126ZM52.5345 63.8468C48.2776 63.8468 44.8121 60.4835 44.8121 56.3446C44.8121 55.3331 45.0227 54.3183 45.4184 53.4057L45.4759 53.2716H44.0558V49.1871H60.9972V53.2716H59.5772L59.6378 53.4057C60.0495 54.3407 60.2569 55.3299 60.2569 56.3446C60.2569 60.4803 56.7914 63.8468 52.5345 63.8468ZM74.6007 56.7084H68.4994V74.5529H74.288V91.7527H69.8492V78.8417H58.7635V74.5529H64.0702V43.4176H68.4994V52.3973H74.6007V56.7084ZM86.2545 92.0048C81.2541 92.0048 77.1855 88.0511 77.1855 83.1943C77.1855 78.3375 81.2541 74.3837 86.2545 74.3837C91.2549 74.3837 95.3267 78.3375 95.3267 83.1943C95.3267 88.0511 91.2581 92.0048 86.2545 92.0048ZM96.4787 30.9374C96.1308 30.9246 95.799 30.7746 95.5469 30.513C95.2501 30.2034 95.0906 29.7694 95.1065 29.3195L95.6107 15.4958C95.6266 15.0491 95.8181 14.6278 96.1372 14.3406C96.4085 14.0949 96.7531 13.9673 97.1009 13.9769C97.8923 14.0024 98.5082 14.73 98.4763 15.5979L97.9721 29.4152C97.9561 29.8652 97.7615 30.2864 97.4424 30.5736C97.1711 30.8193 96.8297 30.947 96.4819 30.9374H96.4787ZM106.39 62.0279C101.473 62.0279 97.4711 58.1412 97.4711 53.361C97.4711 48.5808 101.473 44.6973 106.39 44.6973C111.308 44.6973 115.309 48.584 115.309 53.361C115.309 58.138 111.308 62.0279 106.39 62.0279ZM122.4 78.8448H117.964V43.4176H122.4V52.3973H128.498V56.7084H122.4V78.8448ZM106.387 48.9956C103.907 48.9956 101.894 50.9517 101.894 53.361C101.894 55.7703 103.911 57.7264 106.387 57.7264C108.863 57.7264 110.88 55.7671 110.88 53.361C110.88 50.9549 108.863 48.9956 106.387 48.9956Z" fill="var(--fill-0, white)"/>
</svg>
