<svg preserveAspectRatio="none" width="100%" height="100%" overflow="visible" style="display: block;" viewBox="0 0 144 144" fill="none" xmlns="http://www.w3.org/2000/svg">
<g id="ico">
<circle id="Ellipse" cx="72" cy="72" r="72" fill="var(--fill-0, #14B5B1)"/>
<g id="Vector">
<path d="M99.7553 90.717H99.7499C99.7178 88.5754 97.9842 86.848 95.8406 86.848H48.1621C46.0185 86.848 44.2849 88.5754 44.2528 90.717H44.2474C44.2474 90.7305 44.2474 90.7441 44.2474 90.7576C44.2474 90.7657 44.2474 90.7712 44.2474 90.7793C44.2474 90.7793 44.2822 92.3442 44.3439 92.6149C45.3192 107.116 57.3125 115.964 72.004 115.964C86.6955 115.964 98.6862 107.116 99.6615 92.6149C99.7204 92.3442 99.7553 90.7657 99.7553 90.7576C99.7553 90.7441 99.7553 90.7305 99.7553 90.717Z" fill="white"/>
<path d="M71.9987 124C52.1492 124 36 107.682 36 87.6251C36 76.5488 40.8579 66.3254 49.3786 59.3753V51.7402H48.9579C46.1338 51.7402 43.8348 49.4172 43.8348 46.5608V37.1794C43.8348 34.323 46.1338 32 48.9579 32H95.0448C97.8716 32 100.171 34.323 100.171 37.1794V46.5635C100.171 49.4199 97.8716 51.7429 95.0448 51.7429H94.6241V59.378C103.142 66.3335 108 76.5542 108 87.6278C108 107.685 91.8508 124.003 72.0013 124.003L71.9987 124ZM49.0544 46.466H51.9884C53.4299 46.466 54.5982 47.6465 54.5982 49.1031V60.664C54.5982 61.4925 54.2123 62.275 53.5559 62.7732C45.7184 68.7215 41.2223 77.778 41.2223 87.6251C41.2223 104.774 55.0296 118.723 72.0013 118.723C88.9731 118.723 102.78 104.772 102.78 87.6251C102.78 77.7834 98.2842 68.7242 90.4468 62.7705C89.7903 62.2723 89.4045 61.4925 89.4045 60.6613V49.1004C89.4045 47.6438 90.5727 46.4633 92.0143 46.4633H94.951V37.2769H49.0544V46.4687V46.466Z" fill="white"/>
<path d="M49.7859 81.7851C48.5881 81.7092 47.645 80.7021 47.6503 79.4756C47.6798 71.7863 55.0349 67.4084 55.3484 67.227C56.4417 66.5907 57.835 66.9697 58.4673 68.069C59.0917 69.1709 58.7246 70.5761 57.634 71.2151C57.5831 71.2449 52.2322 74.4776 52.2161 79.4945C52.2108 80.767 51.1845 81.7959 49.9252 81.7905C49.877 81.7905 49.8341 81.7905 49.7885 81.7851H49.7859Z" fill="white"/>
<path d="M100.021 75.6716H91.5347C90.0931 75.6716 88.9249 74.4911 88.9249 73.0345C88.9249 71.5779 90.0931 70.3974 91.5347 70.3974H100.021C101.462 70.3974 102.63 71.5779 102.63 73.0345C102.63 74.4911 101.462 75.6716 100.021 75.6716Z" fill="white"/>
<path d="M103.34 84.9122H91.5373C90.0958 84.9122 88.9275 83.7317 88.9275 82.2751C88.9275 80.8185 90.0958 79.638 91.5373 79.638H103.34C104.782 79.638 105.95 80.8185 105.95 82.2751C105.95 83.7317 104.782 84.9122 103.34 84.9122Z" fill="white"/>
<path d="M70 99.5C70 101.985 67.9853 104 65.5 104C63.0147 104 61 101.985 61 99.5C61 97.0147 63.0147 95 65.5 95C67.9853 95 70 97.0147 70 99.5Z" fill="var(--fill-0, #14B5B1)"/>
<path d="M80 91.5C80 92.8807 78.8807 94 77.5 94C76.1193 94 75 92.8807 75 91.5C75 90.1193 76.1193 89 77.5 89C78.8807 89 80 90.1193 80 91.5Z" fill="var(--fill-0, #14B5B1)"/>
<path d="M84 101C84 102.105 83.1046 103 82 103C80.8954 103 80 102.105 80 101C80 99.8954 80.8954 99 82 99C83.1046 99 84 99.8954 84 101Z" fill="var(--fill-0, #14B5B1)"/>
</g>
</g>
</svg>
