<svg preserveAspectRatio="none" width="100%" height="100%" overflow="visible" style="display: block;" viewBox="0 0 144 144" fill="none" xmlns="http://www.w3.org/2000/svg">
<g id="ico">
<circle id="Ellipse" cx="72" cy="72" r="72" fill="var(--fill-0, #FFA62A)"/>
<g id="Vector">
<path d="M89.3941 41.1453C89.9677 41.1453 90.5373 41.1681 91.0881 41.2139C98.3718 41.8212 105.173 46.8104 108.619 53.1786C109.228 54.3058 109.71 55.4996 110.073 56.737C110.81 59.2514 111.026 62.2379 110.779 64.8355C110.551 67.2438 109.868 69.7707 108.87 71.9669C107.65 74.6477 106.014 77.1038 104.152 79.3707C100.764 83.4865 96.6715 86.9306 92.631 90.3746C88.3834 94.0017 84.0923 97.531 79.7184 101.004C78.8569 101.688 73.5075 106.424 71.9978 107.851C70.4383 106.438 65.1387 101.688 64.2792 101.004C59.9032 97.5289 55.6142 93.9996 51.3666 90.3746C47.3261 86.9306 43.2338 83.4865 39.8478 79.3707C37.9839 77.1038 36.3437 74.6497 35.1301 71.9669C34.1298 69.7707 33.4484 67.2417 33.2206 64.8355C32.9742 62.2358 33.1895 59.2514 33.9268 56.737C34.2892 55.4996 34.7718 54.3058 35.3806 53.1786C38.8247 46.8104 45.6279 41.8191 52.9116 41.2139C53.4624 41.1681 54.0299 41.1453 54.6056 41.1453C56.308 41.1453 58.0725 41.3512 59.6568 41.79C64.2088 43.0545 68.0546 45.4503 70.196 49.799C70.5315 50.4833 71.7865 52.6295 71.9999 53.7464C72.2173 52.6275 73.4702 50.4833 73.8057 49.799C75.9471 45.4503 79.793 43.0524 84.345 41.79C85.9293 41.3512 87.6938 41.1453 89.3961 41.1453M89.3941 36C87.1595 36 84.9415 36.287 82.9802 36.8298C78.3454 38.1172 74.6694 40.2967 71.9978 43.3352C69.3241 40.2946 65.6481 38.1151 61.0174 36.8298C59.0562 36.287 56.8382 36 54.6036 36C53.8911 36 53.1787 36.0291 52.487 36.0873C43.7764 36.8132 35.2957 42.5574 30.8783 50.7245C30.1079 52.1491 29.4804 53.684 29.0103 55.2854C28.126 58.3072 27.8008 61.9655 28.1198 65.3263C28.3973 68.2691 29.2319 71.3887 30.4703 74.109C31.7854 77.0144 33.5623 79.8116 35.8984 82.6505C39.4564 86.9742 43.6128 90.516 47.6305 93.9413L48.051 94.3011C52.2696 97.9032 56.6621 101.52 61.1002 105.045C61.7754 105.586 66.5221 109.824 68.5662 111.675C69.5416 112.559 70.7697 113 71.9978 113C73.2259 113 74.5244 112.532 75.5102 111.602C77.0448 110.153 82.2222 105.584 82.8974 105.045C87.3293 101.526 91.7219 97.9095 95.9508 94.2991L96.3795 93.933C100.393 90.5119 104.545 86.9722 108.101 82.6526C110.427 79.822 112.204 77.029 113.531 74.109C114.768 71.3866 115.602 68.2691 115.88 65.3263C116.199 61.9717 115.876 58.3114 114.989 55.2895C114.519 53.6881 113.892 52.1533 113.123 50.7307C108.702 42.5574 100.221 36.8132 91.5106 36.0873C90.8189 36.0291 90.1065 36 89.3941 36Z" fill="var(--fill-0, white)"/>
<path d="M100.648 61.0961C100.561 61.0608 97.2328 59.4469 92.4861 58.7232C89.8911 58.3342 86.8882 58.2095 83.7486 58.7689C80.085 59.424 77.2457 60.9339 75.2575 62.7932C73.4537 64.4736 72.4306 66.4244 71.9999 68.3274C71.5629 66.4244 70.546 64.4736 68.7401 62.7932C66.752 60.9339 63.9147 59.424 60.2553 58.7689C57.1177 58.2095 54.1086 58.3342 51.5281 58.7232C46.769 59.4469 43.443 61.0608 43.3498 61.0961C42.5732 61.4726 42.246 62.4043 42.6291 63.1821C42.6643 63.2486 43.6895 65.3949 45.7335 68.0133C47.7817 70.6255 50.8447 73.7347 55.0095 75.6543C58.5757 77.2806 61.8334 77.6841 64.5567 77.2806C66.4765 76.9832 68.1085 76.2865 69.3883 75.3444C69.6845 75.126 69.8812 74.8494 70.1401 74.6081V90.6075H73.8741V74.6123C74.1247 74.8536 74.3297 75.1302 74.6155 75.3423C75.8933 76.2844 77.5252 76.979 79.4554 77.2785C82.1705 77.6799 85.4281 77.2785 88.9964 75.6522C93.1736 73.7326 96.2325 70.6234 98.2765 68.0112C100.314 65.3929 101.35 63.2466 101.383 63.18C101.752 62.4043 101.427 61.4705 100.652 61.094L100.648 61.0961Z" fill="var(--fill-0, white)"/>
</g>
</g>
</svg>
