<svg preserveAspectRatio="none" width="100%" height="100%" overflow="visible" style="display: block;" viewBox="0 0 144 144" fill="none" xmlns="http://www.w3.org/2000/svg">
<g id="ico">
<circle id="Ellipse" cx="72" cy="72" r="72" fill="var(--fill-0, #14B5B1)"/>
<g id="Vector">
<path d="M72.0082 34.8118C81.4033 34.8118 89.5983 40.9983 92.6417 49.463C93.9558 52.1834 93.9558 56.574 93.9558 56.574C93.9558 56.574 99.2541 63.7181 100.137 65.5022C101.02 67.2876 96.0141 68.7749 96.0141 68.7749L96.3115 74.4277L96.0141 78.2965C96.0141 78.2965 97.1906 82.4593 95.4271 84.2447C93.9886 85.7016 91.4967 86.3426 89.6127 86.9413C88.7964 87.2048 87.7247 87.3148 86.9701 87.7147C85.994 88.2286 85.7779 89.4246 85.3245 90.3597C84.7743 91.4987 84.3459 92.6974 83.7851 93.8324C83.2545 94.9013 82.4383 95.8721 82.1121 97.039C81.3561 99.7528 84.2699 102.264 86.0648 103.818C87.1142 104.725 90.0398 107.572 90.1826 109.125C89.8472 109.13 89.5196 109.131 89.2 109.131C87.8728 109.131 86.6714 109.098 85.5014 109.098C85.259 109.098 85.018 109.099 84.7782 109.103C83.7537 109.119 82.7291 109.126 81.7046 109.126C79.0411 109.126 76.3762 109.081 73.714 109.036C73.2266 109.028 72.7445 109.024 72.2623 109.024C69.2896 109.024 66.4112 109.163 63.4594 109.163C62.6445 109.163 61.823 109.152 60.9924 109.126C60.0268 109.096 59.0481 109.086 58.0603 109.086C56.2143 109.086 54.3421 109.121 52.4948 109.121C51.4218 109.121 50.3579 109.109 49.3111 109.072C49.1932 109.068 49.074 109.066 48.9534 109.066C47.9577 109.066 46.8454 109.191 45.6833 109.191C45.0531 109.191 44.4085 109.154 43.76 109.043C44.0915 108.168 49.9112 103.578 57.0489 88.8472C57.9214 87.0472 59.5093 83.6619 57.776 81.9123C55.6601 79.7693 50.2754 73.9337 48.6338 68.4809C48.1686 66.9379 47.7887 65.3658 47.5083 63.7751C46.2912 56.868 48.17 50.708 52.2982 45.185C56.7685 39.201 63.8302 35.0727 71.302 34.8263C71.5391 34.8184 71.7736 34.8144 72.0082 34.8144M72.0082 30C71.7212 30 71.4343 30.0053 71.1461 30.0146C62.4912 30.3007 54.025 34.8859 48.5001 42.2817C43.3394 49.1862 41.4292 56.7011 42.8232 64.6161C43.1298 66.3551 43.553 68.126 44.081 69.8795C45.8143 75.6356 50.5649 81.299 53.6831 84.5625C53.5547 84.9916 53.2887 85.6671 52.7751 86.7267C47.4664 97.6853 43.0551 102.573 41.1711 104.66C40.3222 105.602 39.7077 106.281 39.3146 107.318C38.805 108.664 38.919 110.168 39.6238 111.42C40.3287 112.672 41.5511 113.538 42.9556 113.781C43.8032 113.928 44.6954 114 45.6833 114C46.4209 114 47.1074 113.962 47.7127 113.927C48.1739 113.901 48.6102 113.877 48.9547 113.877C49.0202 113.877 49.0844 113.877 49.1473 113.879C50.1444 113.914 51.2082 113.931 52.4961 113.931C53.4341 113.931 54.3788 113.922 55.3234 113.914C56.2379 113.906 57.1537 113.897 58.0616 113.897C59.1385 113.897 60.0229 113.909 60.8457 113.935C61.6685 113.962 62.5266 113.975 63.4607 113.975C64.991 113.975 66.5003 113.939 67.9598 113.905C69.3721 113.872 70.8316 113.836 72.2636 113.836C72.7183 113.836 73.1742 113.84 73.6328 113.848C76.1155 113.89 78.9297 113.939 81.7059 113.939C82.754 113.939 83.8035 113.932 84.8516 113.917C85.0638 113.914 85.2826 113.913 85.5027 113.913C86.0491 113.913 86.6019 113.921 87.1732 113.927C87.8243 113.936 88.4951 113.944 89.2013 113.944C89.5419 113.944 89.8917 113.943 90.2494 113.938C91.5766 113.919 92.8356 113.342 93.7239 112.343C94.6109 111.344 95.0459 110.017 94.9227 108.681C94.6305 105.505 91.6264 102.296 89.158 100.162C88.5947 99.6746 87.4169 98.6561 86.9085 97.9515C86.9963 97.8045 87.0946 97.6429 87.1797 97.5038C87.447 97.0668 87.7509 96.5727 88.0392 95.9939C88.3995 95.2642 88.689 94.5781 88.9694 93.9132C89.1869 93.3967 89.3926 92.908 89.6022 92.4735C89.7096 92.2523 89.8026 92.0391 89.8839 91.8418C90.2442 91.7583 90.6398 91.663 91.0591 91.5279L91.6644 91.3398C93.7816 90.6855 96.6809 89.7888 98.7968 87.6459C101.763 84.642 101.257 80.0329 100.818 77.915L101.058 74.8012C101.074 74.592 101.076 74.3827 101.066 74.1734L100.947 71.906C102.467 71.0411 103.828 69.8583 104.521 68.2504C105.201 66.673 105.155 64.8876 104.396 63.3526C103.571 61.6864 100.564 57.4985 98.6553 54.8972C98.5296 53.0258 98.1535 50.0563 97.0373 47.6034C93.1448 37.0634 83.1169 30 72.0082 30Z" fill="var(--fill-0, white)"/>
<path d="M59.1638 57.9435H59.1586C58.7799 57.9408 58.4236 57.7581 58.2022 57.4481L54.8233 52.745C54.4368 52.2072 54.5547 51.455 55.0866 51.0642C55.6186 50.6735 56.3614 50.794 56.7479 51.3305L59.1743 54.7078L63.1349 49.3054C63.4519 48.8749 64.0127 48.708 64.5119 48.8961L72.0963 51.802C72.7108 52.0377 73.02 52.7317 72.7881 53.3542C72.5536 53.9754 71.8684 54.2867 71.2526 54.0535L64.5106 51.4695L60.1189 57.4574C59.8949 57.7634 59.5398 57.9435 59.1638 57.9435Z" fill="var(--fill-0, white)"/>
<path d="M82.3718 69.8305C81.9827 69.8305 81.6002 69.6385 81.3722 69.2835L76.3504 61.4652C75.9927 60.9076 76.1499 60.162 76.7002 59.8004C77.2531 59.4375 77.9894 59.5977 78.3471 60.154L83.3689 67.9723C83.7265 68.5299 83.5693 69.2756 83.0191 69.6372C82.8186 69.7683 82.5933 69.8305 82.3718 69.8305Z" fill="var(--fill-0, white)"/>
<path d="M78.7073 51.2245C78.3483 51.2245 77.9946 51.0616 77.7601 50.7517C77.3618 50.2245 77.4613 49.4683 77.9841 49.0656L85.3144 43.4089C85.8371 43.0036 86.5839 43.1082 86.9822 43.6353C87.3805 44.1625 87.2809 44.9188 86.7582 45.3214L79.4279 50.9782C79.213 51.145 78.9588 51.2245 78.7073 51.2245Z" fill="var(--fill-0, white)"/>
<path d="M85.1702 52.1C84.8112 52.1 84.4575 51.9371 84.223 51.6272L78.6273 44.2168C78.229 43.6897 78.3286 42.9334 78.8513 42.5308C79.3728 42.1242 80.1209 42.2314 80.5192 42.7573L86.1148 50.1676C86.5131 50.6948 86.4135 51.451 85.8908 51.8537C85.6759 52.0205 85.4217 52.1 85.1702 52.1Z" fill="var(--fill-0, white)"/>
<path d="M60.0103 72.31C59.6933 72.31 59.3775 72.1828 59.143 71.9312C58.6923 71.4477 58.7159 70.6862 59.1941 70.2306L65.91 63.8427C66.3868 63.3884 67.1402 63.4096 67.5922 63.8943C68.0416 64.3778 68.0193 65.1393 67.5411 65.595L60.8239 71.9828C60.5947 72.2014 60.3025 72.31 60.0103 72.31Z" fill="var(--fill-0, white)"/>
<path d="M61.926 64.6082C62.3754 65.0917 62.3531 65.8506 61.8749 66.3062C61.3967 66.7618 60.6434 66.738 60.1927 66.2545C59.7433 65.7711 59.7656 65.0122 60.2438 64.5566C60.7233 64.101 61.4753 64.1248 61.926 64.6082Z" fill="var(--fill-0, white)"/>
<path d="M66.4788 69.4981C66.9282 69.9816 66.9059 70.7431 66.4277 71.1988C65.9482 71.6544 65.1962 71.6305 64.7455 71.1471C64.2961 70.6637 64.3184 69.9021 64.7966 69.4465C65.2748 68.9909 66.0281 69.0147 66.4788 69.4981Z" fill="var(--fill-0, white)"/>
</g>
</g>
</svg>
