<svg preserveAspectRatio="none" width="100%" height="100%" overflow="visible" style="display: block;" viewBox="0 0 144 144" fill="none" xmlns="http://www.w3.org/2000/svg">
<g id="ico">
<circle id="Ellipse" cx="72" cy="72" r="72" fill="var(--fill-0, #FFA62A)"/>
<g id="Vector">
<path d="M74.6329 30.5754V35.085C74.6329 36.5086 73.4528 37.6625 71.9968 37.6625C70.5408 37.6625 69.3608 36.5086 69.3608 35.085V30.5754C69.3608 29.1539 70.5408 28 71.9968 28C73.4528 28 74.6329 29.1539 74.6329 30.5754Z" fill="var(--fill-0, white)"/>
<path d="M74.6329 42.8569V50.6309C74.6329 52.0524 73.4528 53.2063 71.9968 53.2063C70.5408 53.2063 69.3608 52.0524 69.3608 50.6309V42.8569C69.3608 41.4353 70.5408 40.2815 71.9968 40.2815C73.4528 40.2815 74.6329 41.4353 74.6329 42.8569Z" fill="var(--fill-0, white)"/>
<path d="M74.6329 58.4028V66.1768C74.6329 67.5983 73.4528 68.7522 71.9968 68.7522C70.5408 68.7522 69.3608 67.5983 69.3608 66.1768V58.4028C69.3608 56.9812 70.5408 55.8274 71.9968 55.8274C73.4528 55.8274 74.6329 56.9812 74.6329 58.4028Z" fill="var(--fill-0, white)"/>
<path d="M101.21 88.7101C96.897 84.4932 90.7547 83.1297 85.2577 84.6177L83.3602 82.7624L102.065 64.4709C107.303 59.3491 107.303 51.0148 102.065 45.893C101.819 45.6523 101.528 45.4614 101.212 45.3348C100.896 45.2061 100.554 45.1376 100.204 45.1376C99.5033 45.1376 98.8347 45.4095 98.3402 45.893L71.9968 71.6513L45.6534 45.893C44.6665 44.926 42.9155 44.926 41.9286 45.893C36.6905 51.0169 36.6905 59.3491 41.9286 64.4709L60.6355 82.7624L58.736 84.6177C57.3012 84.2275 55.824 84.0345 54.3468 84.0345C50.1593 84.0345 45.9718 85.5931 42.7839 88.7101C36.4082 94.9442 36.4082 105.09 42.7839 111.324C45.9718 114.441 50.1593 116 54.3468 116C58.5343 116 62.7219 114.441 65.9119 111.324C69 108.305 70.7021 104.289 70.7021 100.016C70.7021 98.5428 70.4984 97.1025 70.1057 95.7204L71.9968 93.8713L73.8879 95.7204C73.4952 97.1025 73.2915 98.5428 73.2915 100.016C73.2915 104.289 74.9937 108.305 78.0839 111.324C81.2718 114.441 85.4593 116 89.6468 116C93.8343 116 98.0218 114.441 101.21 111.324C104.398 108.207 106 104.287 106 100.016C106 95.7453 104.298 91.7296 101.21 88.7101ZM62.1849 107.68C57.8615 111.905 50.83 111.905 46.5109 107.68C42.1896 103.455 42.1896 96.5796 46.5109 92.3543C50.83 88.1311 57.8637 88.129 62.1849 92.3543C64.2776 94.4005 65.4322 97.1233 65.4322 100.016C65.4322 102.909 64.2776 105.632 62.1849 107.68ZM64.3604 79.1182L45.6534 60.8267C43.1235 58.353 42.6056 54.6424 44.0998 51.6602L68.272 75.2955L64.3604 79.1182ZM74.8217 83.8208C74.5225 84.6571 73.8454 85.3191 72.9901 85.6117C72.6781 85.7196 72.3449 85.7778 71.9968 85.7778C71.6487 85.7778 71.3155 85.7196 71.0035 85.6117C70.1503 85.3191 69.4733 84.6571 69.174 83.8228C69.0764 83.5531 69.0191 83.2687 69.0085 82.972C69.0042 82.9305 69.0042 82.891 69.0042 82.8516C69.0042 82.3909 69.1125 81.9551 69.3077 81.567C69.5348 81.1105 69.8808 80.7203 70.3074 80.436C70.4262 80.353 70.5536 80.2803 70.6873 80.2181C71.0821 80.0292 71.5278 79.9234 71.9968 79.9234C72.1305 79.9234 72.2621 79.9317 72.3916 79.9483C72.7142 79.9919 73.0219 80.0832 73.3042 80.2181C73.4379 80.2824 73.5653 80.353 73.6863 80.4339C74.1129 80.7203 74.4588 81.1125 74.688 81.5712C74.8812 81.9572 74.9894 82.393 74.9894 82.8516C74.9894 83.192 74.93 83.5178 74.8196 83.8208H74.8217ZM75.7238 75.2955L99.8938 51.6602C101.388 54.6424 100.87 58.353 98.3402 60.8267L79.6333 79.1182L75.7238 75.2955ZM97.4828 107.68C93.1615 111.905 86.13 111.905 81.8087 107.68C79.716 105.632 78.5614 102.911 78.5614 100.016C78.5614 97.1212 79.716 94.4005 81.8087 92.3543C83.9694 90.2417 86.8091 89.1854 89.6447 89.1854C91.0646 89.1854 92.4845 89.4489 93.8173 89.9781C95.1523 90.5052 96.4024 91.298 97.4828 92.3543C99.5755 94.4005 100.728 97.1233 100.728 100.016C100.728 102.909 99.5755 105.634 97.4828 107.68Z" fill="var(--fill-0, white)"/>
<path d="M59.1201 104.684C57.8042 105.972 56.0766 106.616 54.3489 106.616C52.6213 106.616 50.8915 105.972 49.5756 104.684C48.3001 103.438 47.5954 101.78 47.5954 100.016C47.5954 98.2522 48.3001 96.5962 49.5756 95.3489C50.8491 94.1017 52.5449 93.4168 54.3489 93.4168C56.153 93.4168 57.8467 94.1038 59.1201 95.3489C61.7541 97.9223 61.7541 102.11 59.1201 104.684Z" fill="var(--fill-0, white)"/>
<path d="M96.394 100.016C96.394 101.708 95.736 103.397 94.418 104.684C93.1021 105.972 91.3744 106.616 89.6468 106.616C87.9192 106.616 86.1894 105.972 84.8735 104.684C83.5979 103.438 82.8933 101.78 82.8933 100.016C82.8933 98.2522 83.5979 96.5962 84.8735 95.3489C86.1491 94.1017 87.8428 93.4168 89.6468 93.4168C91.4509 93.4168 93.1445 94.1038 94.418 95.3489C95.6914 96.5941 96.394 98.3269 96.394 100.016Z" fill="var(--fill-0, white)"/>
</g>
</g>
</svg>
