<svg preserveAspectRatio="none" width="100%" height="100%" overflow="visible" style="display: block;" viewBox="0 0 437.7 376.04" fill="none" xmlns="http://www.w3.org/2000/svg">
<path id="Vector" d="M164.63 166.13C158.71 166.13 153.88 170.81 153.88 176.57C153.88 182.33 158.7 187.01 164.63 187.01C170.56 187.01 175.38 182.33 175.38 176.57C175.38 170.81 170.56 166.13 164.63 166.13ZM270.3 246.63C262.31 246.63 255.81 252.95 255.81 260.71C255.81 268.47 262.31 274.79 270.3 274.79C278.29 274.79 284.79 268.48 284.79 260.71C284.79 252.94 278.29 246.63 270.3 246.63ZM125.86 64.06C121.96 64.06 118.8 67.14 118.8 70.92C118.8 74.7 121.96 77.78 125.86 77.78C129.76 77.78 132.92 74.7 132.92 70.92C132.92 67.14 129.75 64.06 125.86 64.06ZM273.05 77.78C276.95 77.78 280.11 74.7 280.11 70.92C280.11 67.14 276.95 64.06 273.05 64.06C269.15 64.06 265.99 67.14 265.99 70.92C265.99 74.7 269.16 77.78 273.05 77.78ZM437.7 166.36C437.7 74.48 339.72 0 218.85 0C97.98 0 0 74.48 0 166.36C0 258.24 97.98 332.72 218.85 332.72C239.44 332.72 259.36 330.55 278.25 326.51L385.96 376.04L349.69 299.72C403.11 269.39 437.69 220.94 437.69 166.36H437.7ZM297.84 180.5V194.03H277.7V209.99H297.84V223.52H242.53V209.99H263.8V194.03H242.53V140.41H297.85V153.88H256.44V180.5H297.85H297.84ZM273.05 56.35C281.32 56.35 288.05 62.89 288.05 70.92C288.05 78.95 281.32 85.49 273.05 85.49C264.78 85.49 258.05 78.95 258.05 70.92C258.05 62.89 264.78 56.35 273.05 56.35ZM232.78 37.58C232.83 36.18 233.43 34.85 234.43 33.94C235.28 33.17 236.35 32.77 237.45 32.81C239.92 32.9 241.85 35.17 241.75 37.89L240.04 84.82C239.99 86.22 239.38 87.54 238.39 88.45C237.54 89.22 236.47 89.62 235.38 89.59C234.29 89.55 233.25 89.07 232.45 88.25C231.52 87.28 231.02 85.91 231.07 84.51L232.79 37.59L232.78 37.58ZM224.06 105.34C224.11 106.5 224.61 107.53 225.49 108.24C226.36 108.95 227.49 109.25 228.67 109.11L244.83 106.99C246.26 106.81 247.7 107.16 248.79 107.97C249.72 108.65 250.3 109.61 250.45 110.66C250.78 113.04 248.79 115.28 246.03 115.63L220.16 119.01C218.97 119.17 217.82 118.85 216.93 118.13C216.04 117.4 215.53 116.36 215.48 115.2L214.78 97.82C214.72 96.41 215.22 95.04 216.15 94.07C216.94 93.24 217.98 92.77 219.07 92.72C221.55 92.63 223.65 94.76 223.76 97.47L224.08 105.33L224.06 105.34ZM185.32 43.96C186.31 43.05 187.71 42.55 189.15 42.59L210 43.16C212.47 43.22 214.56 45.23 214.67 47.63L215.26 61.24C215.36 63.64 213.46 65.85 211.01 66.17L198.28 67.83C195.8 68.16 193.77 70.21 193.75 72.39C193.74 73.35 194.14 74.24 194.87 74.89C195.71 75.64 196.91 76.01 198.17 75.9L217.17 74.24C219.96 74 222.41 75.74 222.63 78.14C222.84 80.53 220.76 82.68 217.97 82.92L189.17 85.44C187.97 85.54 186.85 85.18 186 84.42C185.15 83.66 184.69 82.59 184.7 81.42L184.84 65.15C184.87 62.75 186.88 60.52 189.33 60.21L201.64 58.6C204.11 58.27 206.07 56.61 205.99 54.88C205.92 53.16 203.83 51.7 201.34 51.64L188.9 51.3C187.46 51.26 186.08 50.68 185.15 49.72C184.35 48.89 183.93 47.86 183.96 46.81C183.99 45.75 184.48 44.73 185.32 43.96ZM83.67 223.38H35.02V209.88H49.43V178.5H63.34V209.88H83.67V223.38ZM83.67 194.29H69.76V153.81H35.01V140.36H83.66V194.3L83.67 194.29ZM129.58 177.71H110.48V247.08H96.57V136.06H110.48V164.2H129.58V177.71ZM125.86 85.49C117.59 85.49 110.87 78.95 110.87 70.92C110.87 62.89 117.59 56.35 125.86 56.35C132.81 56.35 138.66 60.98 140.35 67.23C140.86 67.05 141.4 66.93 141.97 66.9L151.37 66.48C153.86 66.36 155.96 64.3 156.05 61.87L156.38 52.82C156.43 51.42 157.03 50.1 158.03 49.19C158.88 48.42 159.95 48.01 161.04 48.05C163.51 48.14 165.44 50.42 165.35 53.13L163.76 96.43C163.71 97.84 163.11 99.16 162.1 100.07C161.25 100.84 160.18 101.24 159.09 101.2C156.61 101.11 154.68 98.84 154.78 96.13L155.4 79.34C155.44 78.18 155.02 77.12 154.2 76.33C153.38 75.55 152.28 75.15 151.08 75.2L142.37 75.6C141.6 75.63 140.85 75.5 140.15 75.25C138.24 81.17 132.54 85.48 125.83 85.48L125.86 85.49ZM180.23 136.04V148.29H149.59V136.04H180.23ZM164.63 200.08C151.29 200.08 140.43 189.54 140.43 176.57C140.43 173.4 141.09 170.22 142.33 167.36L142.51 166.94H138.06V154.14H191.15V166.94H186.7L186.89 167.36C188.18 170.29 188.83 173.39 188.83 176.57C188.83 189.53 177.97 200.08 164.63 200.08ZM233.78 177.71H214.66V233.63H232.8V287.53H218.89V247.07H184.15V233.63H200.78V136.06H214.66V164.2H233.78V177.71ZM270.3 288.32C254.63 288.32 241.88 275.93 241.88 260.71C241.88 245.49 254.63 233.1 270.3 233.1C285.97 233.1 298.73 245.49 298.73 260.71C298.73 275.93 285.98 288.32 270.3 288.32ZM302.34 96.95C301.25 96.91 300.21 96.44 299.42 95.62C298.49 94.65 297.99 93.29 298.04 91.88L299.62 48.56C299.67 47.16 300.27 45.84 301.27 44.94C302.12 44.17 303.2 43.77 304.29 43.8C306.77 43.88 308.7 46.16 308.6 48.88L307.02 92.18C306.97 93.59 306.36 94.91 305.36 95.81C304.51 96.58 303.44 96.98 302.35 96.95H302.34ZM333.4 194.38C317.99 194.38 305.45 182.2 305.45 167.22C305.45 152.24 317.99 140.07 333.4 140.07C348.81 140.07 361.35 152.25 361.35 167.22C361.35 182.19 348.81 194.38 333.4 194.38ZM383.57 247.08H369.67V136.06H383.57V164.2H402.68V177.71H383.57V247.08ZM333.39 153.54C325.62 153.54 319.31 159.67 319.31 167.22C319.31 174.77 325.63 180.9 333.39 180.9C341.15 180.9 347.47 174.76 347.47 167.22C347.47 159.68 341.15 153.54 333.39 153.54Z" fill="var(--fill-0, #FE342A)"/>
</svg>
